<svg width="56" height="52" viewBox="0 0 56 52" fill="none" xmlns="http://www.w3.org/2000/svg">
<path d="M50 0H6C2.68629 0 0 2.68629 0 6V46C0 49.3137 2.68629 52 6 52H50C53.3137 52 56 49.3137 56 46V6C56 2.68629 53.3137 0 50 0Z" fill="white"/>
<path d="M50 0.5H6C2.96243 0.5 0.5 2.96243 0.5 6V46C0.5 49.0376 2.96243 51.5 6 51.5H50C53.0376 51.5 55.5 49.0376 55.5 46V6C55.5 2.96243 53.0376 0.5 50 0.5Z" stroke="#707070" stroke-opacity="0.31" stroke-dasharray="8 2"/>
<path d="M34.662 24.119H28.962V18.419C28.962 18.0413 28.812 17.6791 28.5449 17.4121C28.2779 17.145 27.9157 16.995 27.538 16.995C27.1603 16.995 26.7981 17.145 26.5311 17.4121C26.264 17.6791 26.114 18.0413 26.114 18.419V24.119H20.414C20.0363 24.119 19.6741 24.269 19.4071 24.5361C19.14 24.8031 18.99 25.1653 18.99 25.543C18.99 25.9207 19.14 26.2829 19.4071 26.5499C19.6741 26.817 20.0363 26.967 20.414 26.967H26.114V32.667C26.114 33.0447 26.264 33.4069 26.5311 33.6739C26.7981 33.941 27.1603 34.091 27.538 34.091C27.9157 34.091 28.2779 33.941 28.5449 33.6739C28.812 33.4069 28.962 33.0447 28.962 32.667V26.967H34.662C35.0397 26.967 35.4019 26.817 35.6689 26.5499C35.936 26.2829 36.086 25.9207 36.086 25.543C36.086 25.1653 35.936 24.8031 35.6689 24.5361C35.4019 24.269 35.0397 24.119 34.662 24.119Z" fill="#8A94A6"/>
</svg>
