<svg width="9" height="15" viewBox="0 0 9 15" fill="none" xmlns="http://www.w3.org/2000/svg">
<path d="M0.319595 7.7173L6.80319 14.1931C6.87066 14.2608 6.95087 14.3145 7.03911 14.3513C7.12735 14.388 7.22186 14.407 7.31744 14.4072C7.41303 14.4073 7.50776 14.3887 7.59613 14.3522C7.6845 14.3158 7.76486 14.2623 7.83257 14.1949C7.90027 14.1274 7.95404 14.0472 7.99077 13.959C8.0275 13.8708 8.04641 13.7761 8.04658 13.6806C8.04674 13.585 8.02806 13.4903 7.99164 13.4019C7.95521 13.3136 7.90177 13.2332 7.8343 13.1655L1.86478 7.20388L7.83361 1.24223C7.90112 1.17453 7.95465 1.09419 7.99112 1.0058C8.02759 0.917412 8.04619 0.822707 8.04605 0.727092C8.04592 0.631476 8.02696 0.536823 7.99025 0.448536C7.95354 0.36025 7.89992 0.280061 7.83222 0.212544C7.76451 0.145028 7.68417 0.0915063 7.59578 0.0550381C7.50739 0.0185699 7.41254 -0.000131572 7.31692 6.96739e-07C7.22131 0.000132966 7.1267 0.019097 7.03841 0.0558096C6.95013 0.0925222 6.87001 0.146264 6.8025 0.213968L0.318204 6.68975C0.183791 6.82707 0.108621 7.01166 0.108887 7.20381C0.109154 7.39597 0.184801 7.58035 0.319595 7.7173Z" fill="#0E263E"/>
</svg>
