<svg width="16" height="10" viewBox="0 0 16 10" fill="none" xmlns="http://www.w3.org/2000/svg">
<path d="M8.62101 9.13196L15.435 2.30896C15.5107 2.23903 15.5715 2.15465 15.6138 2.06067C15.656 1.96669 15.6789 1.86511 15.681 1.76208C15.6831 1.65906 15.6644 1.55669 15.626 1.46106C15.5876 1.36543 15.5303 1.27841 15.4576 1.20544C15.3848 1.13248 15.2981 1.07491 15.2025 1.03625C15.107 0.997595 15.0047 0.978769 14.9016 0.98059C14.7986 0.98241 14.697 1.00499 14.6029 1.047C14.5088 1.08901 14.4242 1.14948 14.354 1.22497L8.08101 7.50696L1.80801 1.22595C1.66413 1.08247 1.46914 1.00204 1.26595 1.00232C1.06275 1.0026 0.867989 1.08354 0.724507 1.22742C0.581025 1.3713 0.500574 1.56646 0.500855 1.76965C0.501137 1.97285 0.582126 2.16743 0.726006 2.31091L7.54001 9.13391C7.68459 9.27515 7.87879 9.35425 8.08091 9.35388C8.28304 9.35351 8.47695 9.27374 8.62101 9.13196Z" fill="#0E263E" fill-opacity="0.55"/>
</svg>
