<svg width="25" height="24" viewBox="0 0 25 24" fill="none" xmlns="http://www.w3.org/2000/svg">
<path d="M10.741 4H6.24102C5.77758 3.99947 5.33328 3.81514 5.00558 3.48744C4.67788 3.15974 4.49355 2.71544 4.49302 2.252C4.49275 2.05343 4.41376 1.86308 4.27335 1.72267C4.13294 1.58226 3.94258 1.50326 3.74402 1.503H3.24402C3.04511 1.503 2.85434 1.42398 2.71369 1.28333C2.57304 1.14268 2.49402 0.951912 2.49402 0.753C2.49402 0.554088 2.57304 0.363322 2.71369 0.22267C2.85434 0.0820176 3.04511 0.003 3.24402 0.003H3.74402C4.33998 0.00379374 4.91131 0.240891 5.33272 0.662301C5.75413 1.08371 5.99123 1.65504 5.99202 2.251C5.99202 2.3173 6.01836 2.38089 6.06524 2.42778C6.11213 2.47466 6.17572 2.501 6.24202 2.501H10.742C10.8083 2.501 10.8719 2.47466 10.9188 2.42778C10.9657 2.38089 10.992 2.3173 10.992 2.251C10.992 1.65469 11.2286 1.08274 11.6499 0.660715C12.0712 0.238686 12.6427 0.00105964 13.239 0L13.739 0C13.9379 0 14.1287 0.0790176 14.2694 0.21967C14.41 0.360322 14.489 0.551088 14.489 0.75C14.489 0.948912 14.41 1.13968 14.2694 1.28033C14.1287 1.42098 13.9379 1.5 13.739 1.5H13.239C13.0405 1.50026 12.8501 1.57926 12.7097 1.71967C12.5693 1.86008 12.4903 2.05043 12.49 2.249C12.4902 2.47881 12.445 2.7064 12.3572 2.91877C12.2694 3.13114 12.1406 3.32413 11.9782 3.48673C11.8158 3.64933 11.6229 3.77834 11.4106 3.86641C11.1984 3.95447 10.9708 3.99987 10.741 4Z" fill="#7A869B"/>
<path d="M13.8 23.979H3.182C2.46818 23.9742 1.78528 23.687 1.28268 23.1801C0.780074 22.6732 0.498667 21.9878 0.500005 21.274V2.7C0.499989 1.98702 0.78198 1.30298 1.28444 0.797148C1.7869 0.291314 2.46904 0.00475318 3.182 0H13.805C14.5178 0.00501603 15.1997 0.291692 15.7019 0.797498C16.2042 1.3033 16.486 1.9872 16.486 2.7V4.746C16.486 4.94491 16.407 5.13568 16.2663 5.27633C16.1257 5.41698 15.9349 5.496 15.736 5.496C15.5371 5.496 15.3463 5.41698 15.2057 5.27633C15.065 5.13568 14.986 4.94491 14.986 4.746V2.7C14.986 2.38415 14.8615 2.08103 14.6395 1.85638C14.4175 1.63174 14.1158 1.50368 13.8 1.5H3.182C2.86687 1.50473 2.56625 1.63324 2.34509 1.85777C2.12392 2.08231 1.99997 2.38483 2 2.7V21.275C1.99839 21.5914 2.12178 21.8956 2.34333 22.1214C2.56488 22.3473 2.86666 22.4765 3.183 22.481H13.805C14.1214 22.4765 14.4231 22.3473 14.6447 22.1214C14.8662 21.8956 14.9896 21.5914 14.988 21.275V19.233C14.988 19.0341 15.067 18.8433 15.2077 18.7027C15.3483 18.562 15.5391 18.483 15.738 18.483C15.9369 18.483 16.1277 18.562 16.2683 18.7027C16.409 18.8433 16.488 19.0341 16.488 19.233V21.274C16.488 21.987 16.206 22.671 15.7036 23.1769C15.2011 23.6827 14.519 23.9692 13.806 23.974L13.8 23.979Z" fill="#7A869B"/>
<path d="M22.73 16.985H12.239C11.7754 16.9848 11.3308 16.8006 11.0029 16.4728C10.675 16.1451 10.4905 15.7006 10.49 15.237V8.74303C10.4903 8.27924 10.6746 7.83454 11.0025 7.50659C11.3305 7.17865 11.7752 6.99428 12.239 6.99402H22.73C23.1936 6.99455 23.638 7.17903 23.9658 7.50694C24.2935 7.83486 24.4777 8.27942 24.478 8.74303V15.237C24.4775 15.7005 24.2931 16.1448 23.9654 16.4725C23.6377 16.8002 23.1934 16.9845 22.73 16.985ZM12.239 8.49202C12.1727 8.49202 12.1091 8.51836 12.0622 8.56525C12.0153 8.61213 11.989 8.67572 11.989 8.74202V15.236C11.989 15.3023 12.0153 15.3659 12.0622 15.4128C12.1091 15.4597 12.1727 15.486 12.239 15.486H22.73C22.7963 15.486 22.8599 15.4597 22.9068 15.4128C22.9537 15.3659 22.98 15.3023 22.98 15.236V8.74202C22.98 8.67572 22.9537 8.61213 22.9068 8.56525C22.8599 8.51836 22.7963 8.49202 22.73 8.49202H12.239Z" fill="#7A869B"/>
<path d="M17.483 13.3929C17.1256 13.3933 16.7732 13.3086 16.455 13.1459L10.895 10.2459C10.8077 10.2004 10.7303 10.1382 10.6671 10.0628C10.6039 9.98732 10.5561 9.90018 10.5266 9.8063C10.4971 9.71242 10.4863 9.61364 10.495 9.51561C10.5036 9.41757 10.5315 9.3222 10.577 9.23494C10.6225 9.14767 10.6847 9.07022 10.7602 9.00702C10.8356 8.94381 10.9227 8.89609 11.0166 8.86656C11.1105 8.83703 11.2093 8.82628 11.3073 8.83493C11.4054 8.84357 11.5007 8.87144 11.588 8.91694L17.143 11.8169C17.2505 11.8703 17.3689 11.8981 17.489 11.8981C17.609 11.8981 17.7275 11.8703 17.835 11.8169L23.384 8.92294C23.4712 8.87744 23.5666 8.84957 23.6647 8.84093C23.7627 8.83228 23.8615 8.84303 23.9553 8.87256C24.0492 8.90209 24.1364 8.94982 24.2118 9.01303C24.2872 9.07624 24.3495 9.15367 24.395 9.24093C24.4405 9.3282 24.4684 9.42357 24.477 9.5216C24.4856 9.61964 24.4749 9.71842 24.4454 9.8123C24.4158 9.90618 24.3681 9.99332 24.3049 10.0688C24.2417 10.1442 24.1643 10.2064 24.077 10.2519L18.522 13.1519C18.1999 13.3162 17.8435 13.4018 17.482 13.4019L17.483 13.3929Z" fill="#7A869B"/>
</svg>
