<svg width="24" height="24" viewBox="0 0 24 24" fill="none" xmlns="http://www.w3.org/2000/svg">
<g clip-path="url(#clip0_22_2275)">
<path d="M13.0005 3C8.03049 3 4.00049 7.03 4.00049 12H1.00049L4.89049 15.89L4.96049 16.03L9.00049 12H6.00049C6.00049 8.13 9.13049 5 13.0005 5C16.8705 5 20.0005 8.13 20.0005 12C20.0005 15.87 16.8705 19 13.0005 19C11.0705 19 9.32049 18.21 8.06049 16.94L6.64049 18.36C8.27049 19.99 10.5105 21 13.0005 21C17.9705 21 22.0005 16.97 22.0005 12C22.0005 7.03 17.9705 3 13.0005 3ZM12.0005 8V13L16.2805 15.54L17.0005 14.33L13.5005 12.25V8H12.0005Z" fill="#5F686F"/>
</g>
<defs>
<clipPath id="clip0_22_2275">
<rect width="24" height="24" fill="white" transform="translate(0.000488281)"/>
</clipPath>
</defs>
</svg>
