<svg width="79" height="26" viewBox="0 0 79 26" fill="none" xmlns="http://www.w3.org/2000/svg">
<g opacity="0.9">
<path d="M4.16683 8.33337H20.8335V21.875C20.8335 22.1513 20.7238 22.4163 20.5284 22.6116C20.3331 22.807 20.0681 22.9167 19.7918 22.9167H5.2085C4.93223 22.9167 4.66728 22.807 4.47193 22.6116C4.27658 22.4163 4.16683 22.1513 4.16683 21.875V8.33337ZM6.25016 10.4167V20.8334H18.7502V10.4167H6.25016ZM9.37516 12.5H11.4585V18.75H9.37516V12.5ZM13.5418 12.5H15.6252V18.75H13.5418V12.5ZM7.29183 5.20837V3.12504C7.29183 2.84877 7.40158 2.58382 7.59693 2.38847C7.79228 2.19312 8.05723 2.08337 8.3335 2.08337H16.6668C16.9431 2.08337 17.2081 2.19312 17.4034 2.38847C17.5988 2.58382 17.7085 2.84877 17.7085 3.12504V5.20837H22.9168V7.29171H2.0835V5.20837H7.29183ZM9.37516 4.16671V5.20837H15.6252V4.16671H9.37516Z" fill="#DB1B24"/>
</g>
<path d="M26.1186 19V8.81818H29.7479C30.5367 8.81818 31.1913 8.95407 31.7116 9.22585C32.2353 9.49763 32.6264 9.87382 32.8849 10.3544C33.1435 10.8317 33.2727 11.3835 33.2727 12.0099C33.2727 12.633 33.1418 13.1816 32.88 13.6555C32.6214 14.1262 32.2304 14.4924 31.7067 14.7543C31.1863 15.0161 30.5317 15.147 29.7429 15.147H26.9936V13.8246H29.6037C30.1009 13.8246 30.5052 13.7533 30.8168 13.6108C31.1316 13.4683 31.362 13.2611 31.5078 12.9893C31.6536 12.7176 31.7266 12.3911 31.7266 12.0099C31.7266 11.6255 31.652 11.2924 31.5028 11.0107C31.357 10.7289 31.1267 10.5135 30.8118 10.3643C30.5002 10.2119 30.0909 10.1357 29.5838 10.1357H27.6548V19H26.1186ZM31.1449 14.4062L33.6605 19H31.9105L29.4446 14.4062H31.1449ZM38.2182 19.1541C37.4658 19.1541 36.8179 18.9934 36.2743 18.6719C35.7341 18.3471 35.3165 17.8913 35.0215 17.3047C34.7298 16.7147 34.584 16.0237 34.584 15.2315C34.584 14.4493 34.7298 13.7599 35.0215 13.1634C35.3165 12.5668 35.7275 12.1011 36.2544 11.7663C36.7847 11.4316 37.4045 11.2642 38.1138 11.2642C38.5447 11.2642 38.9623 11.3355 39.3667 11.478C39.771 11.6205 40.1339 11.8442 40.4554 12.1491C40.7769 12.4541 41.0305 12.8501 41.2161 13.3374C41.4017 13.8213 41.4945 14.4096 41.4945 15.1023V15.6293H35.4242V14.5156H40.0378C40.0378 14.1245 39.9583 13.7782 39.7992 13.4766C39.6401 13.1716 39.4164 12.9313 39.128 12.7557C38.843 12.58 38.5082 12.4922 38.1238 12.4922C37.7061 12.4922 37.3416 12.5949 37.03 12.8004C36.7218 13.0026 36.4831 13.2678 36.3141 13.5959C36.1484 13.9207 36.0655 14.2737 36.0655 14.6548V15.5249C36.0655 16.0353 36.155 16.4695 36.334 16.8274C36.5163 17.1854 36.7698 17.4588 37.0946 17.6477C37.4194 17.8333 37.7989 17.9261 38.2331 17.9261C38.5149 17.9261 38.7717 17.8864 39.0037 17.8068C39.2357 17.724 39.4363 17.6013 39.6053 17.4389C39.7743 17.2765 39.9036 17.076 39.9931 16.8374L41.4 17.0909C41.2873 17.5052 41.0852 17.8681 40.7935 18.1797C40.5051 18.4879 40.1422 18.7282 39.7047 18.9006C39.2705 19.0696 38.775 19.1541 38.2182 19.1541ZM43.1438 19V11.3636H44.5707V12.6065H44.6651C44.8242 12.1856 45.0844 11.8575 45.4457 11.6222C45.8069 11.3835 46.2395 11.2642 46.7433 11.2642C47.2537 11.2642 47.6812 11.3835 48.0259 11.6222C48.3739 11.8608 48.6308 12.1889 48.7965 12.6065H48.8761C49.0584 12.1989 49.3484 11.8741 49.7461 11.6321C50.1438 11.3868 50.6178 11.2642 51.168 11.2642C51.8607 11.2642 52.4258 11.4813 52.8633 11.9155C53.3041 12.3497 53.5245 13.0043 53.5245 13.8793V19H52.038V14.0185C52.038 13.5014 51.8971 13.1269 51.6154 12.8949C51.3337 12.6629 50.9973 12.5469 50.6062 12.5469C50.1223 12.5469 49.7461 12.696 49.4776 12.9943C49.2092 13.2893 49.0749 13.6688 49.0749 14.1328V19H47.5934V13.924C47.5934 13.5097 47.4641 13.1766 47.2056 12.9247C46.9471 12.6728 46.6107 12.5469 46.1964 12.5469C45.9147 12.5469 45.6545 12.6214 45.4158 12.7706C45.1805 12.9164 44.9899 13.1203 44.8441 13.3821C44.7016 13.6439 44.6303 13.9472 44.6303 14.2919V19H43.1438ZM58.7335 19.1541C58.0176 19.1541 57.3928 18.9901 56.8592 18.6619C56.3256 18.3338 55.9113 17.8748 55.6163 17.2848C55.3213 16.6948 55.1738 16.0054 55.1738 15.2166C55.1738 14.4245 55.3213 13.7318 55.6163 13.1385C55.9113 12.5452 56.3256 12.0845 56.8592 11.7564C57.3928 11.4283 58.0176 11.2642 58.7335 11.2642C59.4494 11.2642 60.0742 11.4283 60.6078 11.7564C61.1414 12.0845 61.5557 12.5452 61.8507 13.1385C62.1457 13.7318 62.2931 14.4245 62.2931 15.2166C62.2931 16.0054 62.1457 16.6948 61.8507 17.2848C61.5557 17.8748 61.1414 18.3338 60.6078 18.6619C60.0742 18.9901 59.4494 19.1541 58.7335 19.1541ZM58.7385 17.9062C59.2025 17.9062 59.5869 17.7836 59.8919 17.5384C60.1968 17.2931 60.4222 16.9666 60.568 16.5589C60.7172 16.1513 60.7917 15.7022 60.7917 15.2116C60.7917 14.7244 60.7172 14.277 60.568 13.8693C60.4222 13.4583 60.1968 13.1286 59.8919 12.88C59.5869 12.6314 59.2025 12.5071 58.7385 12.5071C58.2711 12.5071 57.8833 12.6314 57.5751 12.88C57.2702 13.1286 57.0431 13.4583 56.894 13.8693C56.7482 14.277 56.6752 14.7244 56.6752 15.2116C56.6752 15.7022 56.7482 16.1513 56.894 16.5589C57.0431 16.9666 57.2702 17.2931 57.5751 17.5384C57.8833 17.7836 58.2711 17.9062 58.7385 17.9062ZM70.2253 11.3636L67.4561 19H65.8652L63.0911 11.3636H64.687L66.6209 17.2401H66.7005L68.6294 11.3636H70.2253ZM74.6538 19.1541C73.9014 19.1541 73.2534 18.9934 72.7099 18.6719C72.1696 18.3471 71.752 17.8913 71.457 17.3047C71.1654 16.7147 71.0195 16.0237 71.0195 15.2315C71.0195 14.4493 71.1654 13.7599 71.457 13.1634C71.752 12.5668 72.163 12.1011 72.69 11.7663C73.2203 11.4316 73.8401 11.2642 74.5494 11.2642C74.9802 11.2642 75.3978 11.3355 75.8022 11.478C76.2066 11.6205 76.5695 11.8442 76.891 12.1491C77.2125 12.4541 77.466 12.8501 77.6516 13.3374C77.8372 13.8213 77.93 14.4096 77.93 15.1023V15.6293H71.8597V14.5156H76.4734C76.4734 14.1245 76.3938 13.7782 76.2347 13.4766C76.0756 13.1716 75.8519 12.9313 75.5636 12.7557C75.2785 12.58 74.9438 12.4922 74.5593 12.4922C74.1417 12.4922 73.7771 12.5949 73.4656 12.8004C73.1573 13.0026 72.9187 13.2678 72.7496 13.5959C72.5839 13.9207 72.5011 14.2737 72.5011 14.6548V15.5249C72.5011 16.0353 72.5906 16.4695 72.7695 16.8274C72.9518 17.1854 73.2054 17.4588 73.5302 17.6477C73.855 17.8333 74.2345 17.9261 74.6687 17.9261C74.9504 17.9261 75.2073 17.8864 75.4393 17.8068C75.6713 17.724 75.8718 17.6013 76.0408 17.4389C76.2099 17.2765 76.3391 17.076 76.4286 16.8374L77.8356 17.0909C77.7229 17.5052 77.5207 17.8681 77.229 18.1797C76.9407 18.4879 76.5778 18.7282 76.1403 18.9006C75.7061 19.0696 75.2106 19.1541 74.6538 19.1541Z" fill="#DB1B24"/>
</svg>
