<svg width="26" height="27" viewBox="0 0 26 27" fill="none" xmlns="http://www.w3.org/2000/svg">
<path d="M14 2.125C11.7502 2.125 9.551 2.79213 7.68039 4.04203C5.80978 5.29193 4.35182 7.06847 3.49088 9.14698C2.62993 11.2255 2.40467 13.5126 2.84357 15.7192C3.28248 17.9257 4.36584 19.9525 5.95667 21.5433C7.54749 23.1342 9.57432 24.2175 11.7809 24.6564C13.9874 25.0953 16.2745 24.8701 18.353 24.0091C20.4315 23.1482 22.2081 21.6902 23.458 19.8196C24.7079 17.949 25.375 15.7498 25.375 13.5C25.375 10.4832 24.1766 7.58989 22.0433 5.45666C19.9101 3.32343 17.0168 2.125 14 2.125ZM14 23.25C12.0716 23.25 10.1866 22.6782 8.5832 21.6068C6.97982 20.5355 5.73013 19.0127 4.99218 17.2312C4.25423 15.4496 4.06114 13.4892 4.43735 11.5979C4.81355 9.70656 5.74215 7.96927 7.10571 6.60571C8.46928 5.24215 10.2066 4.31355 12.0979 3.93734C13.9892 3.56114 15.9496 3.75422 17.7312 4.49217C19.5127 5.23013 21.0355 6.47981 22.1068 8.08319C23.1782 9.68657 23.75 11.5716 23.75 13.5C23.75 16.0859 22.7228 18.5658 20.8943 20.3943C19.0658 22.2228 16.5859 23.25 14 23.25Z" fill="#6A6A6A" fill-opacity="0.2"/>
</svg>
