<svg width="39" height="25" viewBox="0 0 39 25" fill="none" xmlns="http://www.w3.org/2000/svg">
<g clip-path="url(#clip0_17_2269)">
<path d="M14.3408 3.0943H24.8214V22.1645H14.3408V3.0943Z" fill="#FF5F00"/>
<path d="M15.0062 12.6295C15.0062 8.75483 16.8028 5.31808 19.5643 3.09429C17.5349 1.47706 14.973 0.5 12.1782 0.5C5.55688 0.5 0.200195 5.92449 0.200195 12.6295C0.200195 19.3343 5.55688 24.7589 12.178 24.7589C14.9729 24.7589 17.5347 23.7819 19.5643 22.1645C16.8028 19.9745 15.0062 16.5041 15.0062 12.6295Z" fill="#EB001B"/>
<path d="M38.9618 12.6295C38.9618 19.3343 33.6051 24.7589 26.9839 24.7589C24.1891 24.7589 21.6272 23.7819 19.5977 22.1645C22.3925 19.9409 24.1559 16.5041 24.1559 12.6295C24.1559 8.75483 22.3591 5.31808 19.5977 3.09429C21.6271 1.47706 24.1891 0.5 26.9839 0.5C33.6051 0.5 38.9619 5.95825 38.9619 12.6295H38.9618Z" fill="#F79E1B"/>
</g>
<defs>
<clipPath id="clip0_17_2269">
<rect width="38.8" height="24.25" fill="white" transform="translate(0.200195 0.5)"/>
</clipPath>
</defs>
</svg>
