<svg width="30" height="19" viewBox="0 0 30 19" fill="none" xmlns="http://www.w3.org/2000/svg">
<path d="M28.5 16H12.5C11.6716 16 11 16.6716 11 17.5C11 18.3284 11.6716 19 12.5 19H28.5C29.3284 19 30 18.3284 30 17.5C30 16.6716 29.3284 16 28.5 16Z" fill="#4B5666"/>
<path d="M28.5 8H7.5C6.67157 8 6 8.67157 6 9.5C6 10.3284 6.67157 11 7.5 11H28.5C29.3284 11 30 10.3284 30 9.5C30 8.67157 29.3284 8 28.5 8Z" fill="#4B5666"/>
<path d="M28.5 0H1.5C0.671573 0 0 0.671573 0 1.5C0 2.32843 0.671573 3 1.5 3H28.5C29.3284 3 30 2.32843 30 1.5C30 0.671573 29.3284 0 28.5 0Z" fill="#4B5666"/>
</svg>
