<svg width="29" height="29" viewBox="0 0 29 29" fill="none" xmlns="http://www.w3.org/2000/svg">
<path d="M25.134 28.153C24.438 28.153 23.7576 27.9466 23.1789 27.5599C22.6002 27.1733 22.1492 26.6237 21.8828 25.9806C21.6165 25.3376 21.5468 24.6301 21.6826 23.9475C21.8184 23.2649 22.1535 22.6378 22.6457 22.1457C23.1378 21.6535 23.7649 21.3184 24.4475 21.1826C25.1301 21.0468 25.8376 21.1165 26.4806 21.3828C27.1237 21.6492 27.6733 22.1002 28.0599 22.6789C28.4466 23.2576 28.653 23.938 28.653 24.634C28.6519 25.567 28.2808 26.4614 27.6211 27.1211C26.9614 27.7808 26.067 28.1519 25.134 28.153ZM25.134 22.874C24.7859 22.874 24.4456 22.9772 24.1562 23.1706C23.8668 23.364 23.6412 23.6389 23.508 23.9605C23.3748 24.2821 23.3399 24.6359 23.4078 24.9774C23.4757 25.3188 23.6434 25.6324 23.8895 25.8785C24.1356 26.1246 24.4492 26.2923 24.7906 26.3602C25.132 26.4281 25.4859 26.3932 25.8075 26.26C26.1291 26.1268 26.404 25.9012 26.5974 25.6118C26.7908 25.3224 26.894 24.9821 26.894 24.634C26.8932 24.1676 26.7075 23.7204 26.3776 23.3907C26.0476 23.061 25.6004 22.8755 25.134 22.875V22.874Z" fill="#7A869B"/>
<path d="M14.283 27.273C14.0496 27.273 13.8258 27.1803 13.6608 27.0153C13.4957 26.8503 13.403 26.6264 13.403 26.393V25.22C13.4035 24.8314 13.5582 24.4588 13.833 24.184C14.1078 23.9092 14.4804 23.7546 14.869 23.754H22.201C22.4344 23.754 22.6582 23.8467 22.8233 24.0118C22.9883 24.1768 23.081 24.4006 23.081 24.634C23.081 24.8674 22.9883 25.0913 22.8233 25.2563C22.6582 25.4213 22.4344 25.514 22.201 25.514H15.163V26.394C15.1627 26.6273 15.0699 26.8508 14.9049 27.0156C14.7399 27.1804 14.5162 27.273 14.283 27.273Z" fill="#7A869B"/>
<path d="M16.63 27.273C16.3966 27.273 16.1728 27.1803 16.0078 27.0153C15.8427 26.8502 15.75 26.6264 15.75 26.393V24.633C15.75 24.3996 15.8427 24.1758 16.0078 24.0107C16.1728 23.8457 16.3966 23.753 16.63 23.753C16.8634 23.753 17.0872 23.8457 17.2523 24.0107C17.4173 24.1758 17.51 24.3996 17.51 24.633V26.393C17.51 26.6264 17.4173 26.8502 17.2523 27.0153C17.0872 27.1803 16.8634 27.273 16.63 27.273Z" fill="#7A869B"/>
<path d="M10.178 23.461H3.139C2.43925 23.4599 1.76847 23.1814 1.27376 22.6865C0.779053 22.1916 0.500793 21.5208 0.5 20.821L0.5 10.85C0.501058 10.1504 0.779434 9.4798 1.27411 8.98512C1.76879 8.49044 2.43942 8.21206 3.139 8.211H16.629C17.3286 8.21206 17.9992 8.49044 18.4939 8.98512C18.9886 9.4798 19.2669 10.1504 19.268 10.85V20.234C19.268 20.4674 19.1753 20.6912 19.0103 20.8563C18.8452 21.0213 18.6214 21.114 18.388 21.114C18.1546 21.114 17.9308 21.0213 17.7657 20.8563C17.6007 20.6912 17.508 20.4674 17.508 20.234V10.85C17.5077 10.6167 17.4149 10.393 17.25 10.228C17.085 10.0631 16.8613 9.97027 16.628 9.97H3.139C2.90569 9.97027 2.68201 10.0631 2.51704 10.228C2.35206 10.393 2.25926 10.6167 2.259 10.85V20.821C2.25926 21.0543 2.35206 21.278 2.51704 21.443C2.68201 21.6079 2.90569 21.7007 3.139 21.701H10.178C10.2936 21.701 10.408 21.7238 10.5148 21.768C10.6215 21.8122 10.7185 21.877 10.8003 21.9588C10.882 22.0405 10.9468 22.1375 10.991 22.2442C11.0352 22.351 11.058 22.4654 11.058 22.581C11.058 22.6966 11.0352 22.811 10.991 22.9178C10.9468 23.0245 10.882 23.1215 10.8003 23.2033C10.7185 23.285 10.6215 23.3498 10.5148 23.394C10.408 23.4382 10.2936 23.461 10.178 23.461Z" fill="#7A869B"/>
<path d="M14.87 9.971C14.7544 9.971 14.64 9.94824 14.5332 9.90401C14.4265 9.85979 14.3294 9.79497 14.2477 9.71325C14.166 9.63154 14.1012 9.53453 14.057 9.42776C14.0127 9.32099 13.99 9.20656 13.99 9.091V5.865C13.9985 5.32047 13.8986 4.77968 13.6961 4.27413C13.4936 3.76858 13.1925 3.30837 12.8104 2.92029C12.4284 2.5322 11.9729 2.224 11.4706 2.01363C10.9682 1.80326 10.4291 1.69492 9.88448 1.69492C9.33988 1.69492 8.80072 1.80326 8.29839 2.01363C7.79607 2.224 7.34061 2.5322 6.95853 2.92029C6.57646 3.30837 6.2754 3.76858 6.0729 4.27413C5.87039 4.77968 5.77049 5.32047 5.77898 5.865V9.091C5.77898 9.32439 5.68626 9.54822 5.52123 9.71325C5.3562 9.87829 5.13237 9.971 4.89898 9.971C4.66559 9.971 4.44176 9.87829 4.27673 9.71325C4.11169 9.54822 4.01898 9.32439 4.01898 9.091V5.865C4.01898 4.3095 4.6369 2.81772 5.7368 1.71782C6.8367 0.617918 8.32849 0 9.88398 0C11.4395 0 12.9313 0.617918 14.0312 1.71782C15.1311 2.81772 15.749 4.3095 15.749 5.865V9.091C15.749 9.32422 15.6564 9.5479 15.4916 9.7129C15.3268 9.8779 15.1032 9.97073 14.87 9.971Z" fill="#7A869B"/>
</svg>
