<svg width="30" height="34" viewBox="0 0 30 34" fill="none" xmlns="http://www.w3.org/2000/svg">
<path d="M24.4969 10.5328C24.4969 15.7976 20.229 20.0655 14.9642 20.0655C9.69936 20.0655 5.4314 15.7976 5.4314 10.5328C5.4314 5.26797 9.69936 1 14.9642 1C20.229 1 24.4969 5.26797 24.4969 10.5328Z" fill="#FFBB0D"/>
<path fill-rule="evenodd" clip-rule="evenodd" d="M25.2031 10.5327C25.2031 16.1875 20.619 20.7716 14.9642 20.7716C9.30945 20.7716 4.72534 16.1875 4.72534 10.5327C4.72534 4.87793 9.30945 0.293823 14.9642 0.293823C20.619 0.293823 25.2031 4.87793 25.2031 10.5327ZM14.9642 20.0655C20.229 20.0655 24.497 15.7975 24.497 10.5327C24.497 5.26792 20.229 0.999954 14.9642 0.999954C9.69944 0.999954 5.43147 5.26792 5.43147 10.5327C5.43147 15.7975 9.69944 20.0655 14.9642 20.0655Z" fill="#E89B05"/>
<path fill-rule="evenodd" clip-rule="evenodd" d="M6.13744 10.8859C5.94244 10.8859 5.78437 10.7278 5.78437 10.5328C5.78437 5.46299 9.89426 1.3531 14.9641 1.3531C15.1591 1.3531 15.3171 1.51117 15.3171 1.70616C15.3171 1.90115 15.1591 2.05923 14.9641 2.05923C10.2842 2.05923 6.4905 5.85297 6.4905 10.5328C6.4905 10.7278 6.33243 10.8859 6.13744 10.8859Z" fill="#E8AA0A"/>
<path fill-rule="evenodd" clip-rule="evenodd" d="M23.7908 10.1797C23.9858 10.1797 24.1439 10.3378 24.1439 10.5328C24.1439 15.6026 20.034 19.7125 14.9641 19.7125C14.7692 19.7125 14.6111 19.5544 14.6111 19.3594C14.6111 19.1644 14.7692 19.0063 14.9641 19.0063C19.644 19.0063 23.4377 15.2126 23.4377 10.5328C23.4377 10.3378 23.5958 10.1797 23.7908 10.1797Z" fill="#E8AA0A"/>
<path d="M22.0255 10.5327C22.0255 14.4326 18.864 17.5941 14.9641 17.5941C11.0643 17.5941 7.90283 14.4326 7.90283 10.5327C7.90283 6.63289 11.0643 3.47144 14.9641 3.47144C18.864 3.47144 22.0255 6.63289 22.0255 10.5327Z" fill="#FFDD28"/>
<path fill-rule="evenodd" clip-rule="evenodd" d="M22.7317 10.5328C22.7317 14.8227 19.2541 18.3003 14.9642 18.3003C10.6744 18.3003 7.19678 14.8227 7.19678 10.5328C7.19678 6.24298 10.6744 2.76538 14.9642 2.76538C19.2541 2.76538 22.7317 6.24298 22.7317 10.5328ZM14.9642 17.5941C18.8641 17.5941 22.0255 14.4327 22.0255 10.5328C22.0255 6.63297 18.8641 3.47151 14.9642 3.47151C11.0644 3.47151 7.90291 6.63297 7.90291 10.5328C7.90291 14.4327 11.0644 17.5941 14.9642 17.5941Z" fill="#E89B05"/>
<path fill-rule="evenodd" clip-rule="evenodd" d="M14.9641 16.5348C18.279 16.5348 20.9662 13.8476 20.9662 10.5327C20.9662 10.3377 21.1243 10.1797 21.3193 10.1797C21.5143 10.1797 21.6724 10.3377 21.6724 10.5327C21.6724 14.2376 18.669 17.241 14.9641 17.241C14.7691 17.241 14.6111 17.0829 14.6111 16.8879C14.6111 16.6929 14.7691 16.5348 14.9641 16.5348Z" fill="#ECC704"/>
<path fill-rule="evenodd" clip-rule="evenodd" d="M14.9641 4.53059C11.6492 4.53059 8.96199 7.21783 8.96199 10.5327C8.96199 10.7277 8.80392 10.8858 8.60892 10.8858C8.41393 10.8858 8.25586 10.7277 8.25586 10.5327C8.25586 6.82785 11.2592 3.82446 14.9641 3.82446C15.1591 3.82446 15.3172 3.98254 15.3172 4.17753C15.3172 4.37252 15.1591 4.53059 14.9641 4.53059Z" fill="#FFEF9C"/>
<path d="M2.08829 29.3574L1.01046 27.2018C0.893087 26.967 1.06379 26.6908 1.32626 26.6908L6.05096 26.6908C6.24596 26.6908 6.40403 26.8489 6.40403 27.0439L6.40403 31.9868C6.40403 32.1818 6.24596 32.3398 6.05096 32.3398L1.32626 32.3398C1.06379 32.3398 0.893087 32.0636 1.01046 31.8289L2.08829 29.6732C2.138 29.5738 2.138 29.4568 2.08829 29.3574Z" fill="#E16104"/>
<path d="M27.6669 29.3574L28.7447 27.2018C28.8621 26.967 28.6914 26.6908 28.4289 26.6908L23.7042 26.6908C23.5092 26.6908 23.3512 26.8489 23.3512 27.0439L23.3512 31.9868C23.3512 32.1818 23.5092 32.3398 23.7042 32.3398L28.4289 32.3398C28.6914 32.3398 28.8621 32.0636 28.7447 31.8289L27.6669 29.6732C27.6172 29.5738 27.6172 29.4568 27.6669 29.3574Z" fill="#E16104"/>
<path fill-rule="evenodd" clip-rule="evenodd" d="M1.37776 29.5153L0.37887 27.5175C0.0267429 26.8132 0.538851 25.9846 1.32624 25.9846L6.05095 25.9846C6.63593 25.9846 7.11015 26.4588 7.11015 27.0438L7.11015 31.9867C7.11015 32.5717 6.63593 33.0459 6.05095 33.0459L1.32624 33.0459C0.53885 33.0459 0.0267427 32.2173 0.37887 31.513L1.37776 29.5153ZM1.4565 29.6728C1.45657 29.6729 1.45664 29.673 1.45671 29.6732L1.7725 29.5153L1.4567 29.6732L1.4565 29.6728ZM28.3774 29.5153L29.3763 27.5175C29.7284 26.8132 29.2163 25.9846 28.4289 25.9846L23.7042 25.9846C23.1192 25.9846 22.645 26.4588 22.645 27.0438L22.645 31.9867C22.645 32.5717 23.1193 33.0459 23.7042 33.0459L28.4289 33.0459C29.2163 33.0459 29.7284 32.2173 29.3763 31.513L28.3774 29.5153ZM28.7447 27.2017L27.6669 29.3574C27.6172 29.4568 27.6172 29.5738 27.6669 29.6732L28.7447 31.8288C28.8621 32.0636 28.6914 32.3398 28.4289 32.3398L23.7042 32.3398C23.5092 32.3398 23.3512 32.1817 23.3512 31.9867L23.3512 27.0438C23.3512 26.8488 23.5092 26.6907 23.7042 26.6907L28.4289 26.6908C28.6914 26.6908 28.8621 26.967 28.7447 27.2017ZM1.01045 27.2017L2.08829 29.3574C2.13799 29.4568 2.13799 29.5738 2.08829 29.6732L1.01045 31.8288C0.893078 32.0636 1.06378 32.3398 1.32624 32.3398L6.05095 32.3398C6.24595 32.3398 6.40402 32.1817 6.40402 31.9867L6.40402 27.0438C6.40402 26.8488 6.24595 26.6907 6.05095 26.6907L1.32624 26.6907C1.06378 26.6907 0.893078 26.967 1.01045 27.2017Z" fill="#BD4501"/>
<path fill-rule="evenodd" clip-rule="evenodd" d="M1.51531 27.01C1.57996 26.9074 1.69274 26.8452 1.814 26.8452H3.31453C3.50952 26.8452 3.6676 27.0033 3.6676 27.1983C3.6676 27.3933 3.50952 27.5513 3.31453 27.5513H2.37423L3.10345 29.0761C3.18758 29.252 3.11318 29.4628 2.93727 29.5469C2.76136 29.6311 2.55055 29.5566 2.46642 29.3807L1.49549 27.3506C1.44317 27.2412 1.45065 27.1126 1.51531 27.01Z" fill="#FA7616"/>
<path d="M24.7634 30.5745L24.7634 25.6316C24.7634 25.4366 24.6054 25.2786 24.4104 25.2786L5.34483 25.2786C5.14983 25.2786 4.99176 25.4366 4.99176 25.6316L4.99176 30.5745C4.99176 30.7695 5.14983 30.9276 5.34483 30.9276L24.4104 30.9276C24.6054 30.9276 24.7634 30.7695 24.7634 30.5745Z" fill="#FF8B04"/>
<path fill-rule="evenodd" clip-rule="evenodd" d="M25.4695 25.6316L25.4695 30.5745C25.4695 31.1595 24.9953 31.6337 24.4103 31.6337L5.34475 31.6337C4.75977 31.6337 4.28555 31.1595 4.28555 30.5745L4.28555 25.6316C4.28555 25.0466 4.75977 24.5724 5.34475 24.5724L24.4103 24.5724C24.9953 24.5724 25.4695 25.0466 25.4695 25.6316ZM24.7634 25.6316L24.7634 30.5745C24.7634 30.7695 24.6053 30.9276 24.4103 30.9276L5.34475 30.9276C5.14976 30.9276 4.99168 30.7695 4.99168 30.5745L4.99168 25.6316C4.99168 25.4366 5.14976 25.2785 5.34475 25.2785L24.4103 25.2785C24.6053 25.2785 24.7634 25.4366 24.7634 25.6316Z" fill="#BD4501"/>
<path fill-rule="evenodd" clip-rule="evenodd" d="M5.2124 25.786C5.2124 25.5911 5.37048 25.433 5.56547 25.433H18.8054C19.0004 25.433 19.1585 25.5911 19.1585 25.786C19.1585 25.981 19.0004 26.1391 18.8054 26.1391H5.91853V28.6106C5.91853 28.8056 5.76046 28.9636 5.56547 28.9636C5.37048 28.9636 5.2124 28.8056 5.2124 28.6106V25.786Z" fill="#FFB053"/>
<path d="M23.7879 28.2371C23.588 28.2371 23.4259 28.079 23.4259 27.8839C23.4259 27.6889 23.588 27.5308 23.7879 27.5308C23.9878 27.5308 24.1499 27.6889 24.1499 27.8839C24.1499 28.079 23.9878 28.2371 23.7879 28.2371Z" fill="#E77D02"/>
<path d="M22.4105 28.0958C22.1619 28.0958 21.9603 27.8991 21.9603 27.6565C21.9603 27.4138 22.1619 27.2172 22.4105 27.2172C22.6592 27.2172 22.8608 27.4138 22.8608 27.6565C22.8608 27.8991 22.6592 28.0958 22.4105 28.0958Z" fill="#E77D02"/>
<path d="M23.0244 29.1002C22.9 29.1002 22.7992 29.0019 22.7992 28.8805C22.7992 28.7592 22.9 28.6609 23.0244 28.6609C23.1487 28.6609 23.2495 28.7592 23.2495 28.8805C23.2495 29.0019 23.1487 29.1002 23.0244 29.1002Z" fill="#E77D02"/>
<path d="M22.6357 26.7771C22.5113 26.7771 22.4105 26.6787 22.4105 26.5574C22.4105 26.4361 22.5113 26.3378 22.6357 26.3378C22.76 26.3378 22.8608 26.4361 22.8608 26.5574C22.8608 26.6787 22.76 26.7771 22.6357 26.7771Z" fill="#E77D02"/>
<path d="M21.4526 28.8806C21.3282 28.8806 21.2274 28.7823 21.2274 28.6609C21.2274 28.5396 21.3282 28.4413 21.4526 28.4413C21.5769 28.4413 21.6777 28.5396 21.6777 28.6609C21.6777 28.7823 21.5769 28.8806 21.4526 28.8806Z" fill="#E77D02"/>
<path d="M21.2275 27.7505C21.1031 27.7505 21.0023 27.6521 21.0023 27.5308C21.0023 27.4095 21.1031 27.3112 21.2275 27.3112C21.3518 27.3112 21.4526 27.4095 21.4526 27.5308C21.4526 27.6521 21.3518 27.7505 21.2275 27.7505Z" fill="#E77D02"/>
<path d="M19.6926 30.2984C19.5682 30.2984 19.4674 30.2001 19.4674 30.0788C19.4674 29.9575 19.5682 29.8591 19.6926 29.8591C19.8169 29.8591 19.9177 29.9575 19.9177 30.0788C19.9177 30.2001 19.8169 30.2984 19.6926 30.2984Z" fill="#E77D02"/>
<path d="M24.1721 29.4599C24.0477 29.4599 23.9469 29.3616 23.9469 29.2403C23.9469 29.119 24.0477 29.0206 24.1721 29.0206C24.2964 29.0206 24.3972 29.119 24.3972 29.2403C24.3972 29.3616 24.2964 29.4599 24.1721 29.4599Z" fill="#E77D02"/>
<path d="M22.0442 29.941C21.8419 29.941 21.6778 29.781 21.6778 29.5836C21.6778 29.3861 21.8419 29.2261 22.0442 29.2261C22.2466 29.2261 22.4106 29.3861 22.4106 29.5836C22.4106 29.781 22.2466 29.941 22.0442 29.941Z" fill="#E77D02"/>
<path d="M23.6158 30.2985C23.4134 30.2985 23.2493 30.1384 23.2493 29.941C23.2493 29.7435 23.4134 29.5835 23.6158 29.5835C23.8181 29.5835 23.9822 29.7435 23.9822 29.941C23.9822 30.1384 23.8181 30.2985 23.6158 30.2985Z" fill="#E77D02"/>
<path d="M20.4107 29.5956C20.2083 29.5956 20.0443 29.4355 20.0443 29.2381C20.0443 29.0407 20.2083 28.8806 20.4107 28.8806C20.613 28.8806 20.7771 29.0407 20.7771 29.2381C20.7771 29.4355 20.613 29.5956 20.4107 29.5956Z" fill="#E77D02"/>
<path d="M21.0024 30.407C20.878 30.407 20.7772 30.3086 20.7772 30.1873C20.7772 30.066 20.878 29.9677 21.0024 29.9677C21.1267 29.9677 21.2275 30.066 21.2275 30.1873C21.2275 30.3086 21.1267 30.407 21.0024 30.407Z" fill="#E77D02"/>
</svg>
