<svg width="27" height="27" viewBox="0 0 27 27" fill="none" xmlns="http://www.w3.org/2000/svg">
<path d="M13.5 27C20.9558 27 27 20.9558 27 13.5C27 6.04416 20.9558 0 13.5 0C6.04416 0 0 6.04416 0 13.5C0 20.9558 6.04416 27 13.5 27Z" fill="white"/>
<path d="M26.5 13.5C26.5 20.6797 20.6797 26.5 13.5 26.5C6.3203 26.5 0.5 20.6797 0.5 13.5C0.5 6.3203 6.3203 0.5 13.5 0.5C20.6797 0.5 26.5 6.3203 26.5 13.5Z" stroke="black" stroke-opacity="0.5"/>
<path d="M18.496 8.692L11.707 15.481L8.59505 12.37C8.48342 12.2584 8.35091 12.1698 8.20506 12.1094C8.05922 12.049 7.90291 12.0179 7.74505 12.0179C7.58719 12.0179 7.43088 12.049 7.28503 12.1094C7.13919 12.1698 7.00667 12.2584 6.89505 12.37C6.78343 12.4816 6.69488 12.6141 6.63447 12.76C6.57406 12.9058 6.54297 13.0621 6.54297 13.22C6.54297 13.3779 6.57406 13.5342 6.63447 13.68C6.69488 13.8259 6.78343 13.9584 6.89505 14.07L10.855 18.03C10.9665 18.1416 11.0988 18.2301 11.2445 18.2905C11.3902 18.3509 11.5463 18.382 11.704 18.382C11.8617 18.3821 12.0178 18.3512 12.1635 18.291C12.3091 18.2307 12.4415 18.1424 12.553 18.031L20.191 10.394C20.3027 10.2824 20.3912 10.1499 20.4516 10.004C20.512 9.85817 20.5431 9.70186 20.5431 9.544C20.5431 9.38614 20.512 9.22983 20.4516 9.08398C20.3912 8.93814 20.3027 8.80562 20.191 8.694C20.0794 8.58238 19.9469 8.49383 19.8011 8.43342C19.6552 8.37301 19.4989 8.34192 19.341 8.34192C19.1832 8.34192 19.0269 8.37301 18.881 8.43342C18.7352 8.49383 18.6027 8.58238 18.4911 8.694L18.496 8.692Z" fill="white"/>
</svg>
